<svg loading="lazy" width="1440" height="126" preserveAspectRatio="none" fill="#fff" xmlns="http://www.w3.org/2000/svg"><path d="m1440 30.5-8.4 4.9-8.9-10.4c-.9-1-2.1-1.6-3.4-1.5l-10.4.6c-1 .1-2 .4-2.8 1.1l-3.4 2.8c-4 3.2-8.9 5.1-14 5.4l-9.4.5-1.3-1.5c-3.5-4-8.5-6.1-13.6-5.8l-2 .1-12-5.8-7.5-3.9c-2-1-4.4-.7-6 .9l-.7.7c-2.4 2.3-6.1 2.4-8.6.2l-5.7-5.1c-.8-.7-1.7-1.1-2.8-1.3l-10.1-1.5-6-6-.9-.8c-3.5-3.3-8.6-4.1-12.9-1.9l-14.6 8.4c-2.4 1.8-6.4 6.2-9.6 9.8-2.4 2.6-4.4 4.9-5.1 5.3-1.2.8-20.2-2.6-32.5-5.1-6.4-1.3-13.5.1-18.8 4.2l-14 10.9-4.8 5.4c-3.1 3.5-7 6.3-11.2 8.1l-9.9 6.4-5.3 3.4h-11l-8.7-3.4H1132l-35.6-34.4c-2.1-2-5.5-1.8-7.3.4l-16 19.5-14.3 4.4-10.6 10.1-11.8 11.6-7.6 8.7-8.2 5.6-13.6 12-20.2 12.8-6.9 15.4-16.5 4.3H1440"/><path d="M1024 125.6V121l-5.4 2.1-7.9-2-5.9-3.7h-3.6l-5-2.4-2.8-2.3-5-1.9-6.5 4.8-3.7-2.9-3.5-1.2-4.7-4.2-3.3-4.4-6.2-3.9-6.5-5-12.3-9.2-15.1 9.2-23.8-3.2-11.8-6c-2.5-.8-4.8-2.1-6.7-3.8l-2.9-2.6-8.3-5.2c-3.1-2-7.3-2.5-10.9-1.6-7 1.6-17.8 3.9-18.5 3.6-.4-.2-1.6-1.3-3.1-2.6-2-1.8-4.3-3.9-5.8-4.8l-8.6-3.9c-2.5-1-5.4-.5-7.3 1.3l-.5.4-3.3 3.2-5.8 1c-.6.1-1.1.4-1.5.7l-3.1 2.8c-1.4 1.2-3.5 1.3-4.9.2l-.4-.3c-1-.8-2.4-.9-3.5-.3l-4.2 2.2-6.7 3.3h-1.1c-3 0-5.8 1.2-7.6 3.4l-.7.8H770c-2.9 0-5.8-.8-8.2-2.4l-2.1-1.3c-.5-.3-1.1-.5-1.6-.5h-6c-.7 0-1.5.3-1.9.9l-4.8 5.6-5-2.3-9.1 2.3h-9.7L708.1 88l-14.8-7h-10.9l-10.8 1.7-7.7-7.2c-.2-.2-.5-.3-.9-.3h-7.4l-8-5.1-10.2-2.3-8.6-5.6-13.4-5.3c-4-1.7-8.7-1.2-12.1 1.3l-.3.2L580.7 70l-8.6 5.1-13.8 2-8.2-2-.7-.7c-.9-.9-2.5-1-3.5-.1l-2.9 2.6-5.5.3-1.7-1.3c-3.4-2.7-7.7-4.1-12.1-4.1l-5.2-1.7-11-6h-8.9l-13.8 3.7-4.7 3.9-12.1 1.4-3.2 5.1h-19.9l-7.2-2.8-9.9-9.5c-1.3-1.3-3.2-1.8-5.1-1.5l-7.6 3.1-9.1 3.9-5.2-5.6-3.1-2.4c-1-.8-2.6-.7-3.5.3l-3.4 3.8-2.8 5.6-7.2 3.1c-1.1.5-2.2 1.1-3.2 1.8l-4.2 2.9-4.3-1.1c-4-1-8.3-.2-11.6 2.3l-.8.6h-3.9c-1.1 0-2.1.1-3.2.2l-9-4.1-.3-.2c-3.6-2.4-8.3-2.7-12.2-.7l-13.1 6-8.3 6-10 2.8-7.8 5.5-7.4.4c-.3 0-.6.2-.9.4l-3 3.1-13.2 3.5-1.9-.2-10.9.5-11.2 6.1-5 1.3-11.7-2.1-9.7.5-9.2-1.8-4.8 2.5-5.1-5.4c-.5-.5-1.2-.8-2-.8l-6 .3c-.6 0-1.1.2-1.6.6l-2 1.4c-2.3 1.7-5.1 2.6-8.1 2.8l-5.4.3-.7-.8c-2-2.1-4.9-3.2-7.8-3l-1.1.1-6.9-3-4.3-2c-1.1-.5-2.5-.3-3.5.5l-.4.4c-1.4 1.2-3.5 1.2-4.9.1l-3.3-2.6c-.4-.4-1-.6-1.6-.7l-5.8-.8-3.4-3.1-.5-.4c-2-1.7-4.9-2.1-7.4-1l-8.4 4.4c-1.4.9-3.7 3.2-5.5 5-1.4 1.4-2.5 2.5-2.9 2.8-.7.4-11.6-1.3-18.7-2.6-3.7-.7-7.8.1-10.8 2.2l-8 5.6-2.7 2.8c-1.8 1.8-4 3.2-6.5 4.2L49 123l-3 1.8h-6.3l-5-1.8H28L9 106.5c-2-1.8-5.1-1.6-7 .4l-2 1.8v16.8"/></svg>
